PathFileType	4	(X/Y/Z)	C:\Users\Willi\Documents\Github\OpenSimMatlabBasic\ExampleData\Trials\dynamic04\marker_experimental.trc
DataRate	CameraRate	NumFrames	NumMarkers	Units	OrigDataRate	OrigDataStartFrame	OrigNumFrames
150.000000	150.000000	2	179	mm	150.000000	274	366
Frame#	Time	LFHD			LBHD			RFHD			RBHD			C7			T10			CLAV			STRN			RBAK			LSHO			LUPA			LELB			LFRA			LWRB			LWRA			LFIN			RSHO			RUPA			RELB			RFRA			RWRB			RWRA			RFIN			SACR			LASI			LT1			LT2			LT3			LS1			LS2			LS3			LHEE			LTOE			RT1			RT2			RT3			RS1			RS2			RS3			RHEE			RTOE			SACO			SACA			SACL			SACP			RASI			RM5D			LM5D			LKNE			RKNE			LANK			RANK			LKJC			RKJC			LAJC			RAJC			LTHI			RTHI			LTIB			RTIB			P_ForcePlate1			P_ForcePlate2			P_ForcePlate3			funktRKJC			funktLKJC			funktRHIP			funktLHIP			LHJC			RHJC			LKNEshank			RKNEshank			LKJCshank			RKJCshank			LHF			COP_FP1			VECTIP_FP1			RawCentreFP1			COP_FP2			VECTIP_FP2			RawCentreFP2			COP_FP3			VECTIP_FP3			RawCentreFP3			LPelvisAngles			RPelvisAngles			LFootProgressAngles			RFootProgressAngles			LHipAngles			RHipAngles			LKneeAngles			RKneeAngles			LAnkleAngles			RAnkleAngles			LFFootAngles			RFFootAngles			LAbsAnkleAngle			RAbsAnkleAngle			RNeckAngles			LNeckAngles			RSpineAngles			LSpineAngles			LShoulderAngles			LElbowAngles			LWristAngles			RShoulderAngles			RElbowAngles			RWristAngles			RThoraxAngles			LThoraxAngles			RHeadAngles			LHeadAngles			LHipPower			LKneePower			LAnklePower			RHipPower			RKneePower			RAnklePower			LWaistPower			RWaistPower			LNeckPower			RNeckPower			LShoulderPower			RShoulderPower			LElbowPower			RElbowPower			LWristPower			RWristPower			F_ForcePlate1			F_ForcePlate2			F_ForcePlate3			LHipForce			RHipForce			LKneeForce			RKneeForce			LAnkleForce			RAnkleForce			LNormalisedGRF			RNormalisedGRF			LGroundReactionForce			RGroundReactionForce			LGRF			RGRF			LWaistForce			RWaistForce			LNeckForce			RNeckForce			LShoulderForce			RShoulderForce			LElbowForce			RElbowForce			LWristForce			RWristForce			Force_FP1			RawForceFP1			Force_FP2			RawForceFP2			Force_FP3			RawForceFP3			LHipMoment			RHipMoment			LKneeMoment			RKneeMoment			LAnkleMoment			RAnkleMoment			LGroundReactionMoment			RGroundReactionMoment			LWaistMoment			RWaistMoment			LNeckMoment			RNeckMoment			LShoulderMoment			RShoulderMoment			LElbowMoment			RElbowMoment			LWristMoment			RWristMoment			RawMomentFP1			RawMomentFP2			RawMomentFP3			
		X1	Y1	Z1	X2	Y2	Z2	X3	Y3	Z3	X4	Y4	Z4	X5	Y5	Z5	X6	Y6	Z6	X7	Y7	Z7	X8	Y8	Z8	X9	Y9	Z9	X10	Y10	Z10	X11	Y11	Z11	X12	Y12	Z12	X13	Y13	Z13	X14	Y14	Z14	X15	Y15	Z15	X16	Y16	Z16	X17	Y17	Z17	X18	Y18	Z18	X19	Y19	Z19	X20	Y20	Z20	X21	Y21	Z21	X22	Y22	Z22	X23	Y23	Z23	X24	Y24	Z24	X25	Y25	Z25	X26	Y26	Z26	X27	Y27	Z27	X28	Y28	Z28	X29	Y29	Z29	X30	Y30	Z30	X31	Y31	Z31	X32	Y32	Z32	X33	Y33	Z33	X34	Y34	Z34	X35	Y35	Z35	X36	Y36	Z36	X37	Y37	Z37	X38	Y38	Z38	X39	Y39	Z39	X40	Y40	Z40	X41	Y41	Z41	X42	Y42	Z42	X43	Y43	Z43	X44	Y44	Z44	X45	Y45	Z45	X46	Y46	Z46	X47	Y47	Z47	X48	Y48	Z48	X49	Y49	Z49	X50	Y50	Z50	X51	Y51	Z51	X52	Y52	Z52	X53	Y53	Z53	X54	Y54	Z54	X55	Y55	Z55	X56	Y56	Z56	X57	Y57	Z57	X58	Y58	Z58	X59	Y59	Z59	X60	Y60	Z60	X61	Y61	Z61	X62	Y62	Z62	X63	Y63	Z63	X64	Y64	Z64	X65	Y65	Z65	X66	Y66	Z66	X67	Y67	Z67	X68	Y68	Z68	X69	Y69	Z69	X70	Y70	Z70	X71	Y71	Z71	X72	Y72	Z72	X73	Y73	Z73	X74	Y74	Z74	X75	Y75	Z75	X76	Y76	Z76	X77	Y77	Z77	X78	Y78	Z78	X79	Y79	Z79	X80	Y80	Z80	X81	Y81	Z81	X82	Y82	Z82	X83	Y83	Z83	X84	Y84	Z84	X85	Y85	Z85	X86	Y86	Z86	X87	Y87	Z87	X88	Y88	Z88	X89	Y89	Z89	X90	Y90	Z90	X91	Y91	Z91	X92	Y92	Z92	X93	Y93	Z93	X94	Y94	Z94	X95	Y95	Z95	X96	Y96	Z96	X97	Y97	Z97	X98	Y98	Z98	X99	Y99	Z99	X100	Y100	Z100	X101	Y101	Z101	X102	Y102	Z102	X103	Y103	Z103	X104	Y104	Z104	X105	Y105	Z105	X106	Y106	Z106	X107	Y107	Z107	X108	Y108	Z108	X109	Y109	Z109	X110	Y110	Z110	X111	Y111	Z111	X112	Y112	Z112	X113	Y113	Z113	X114	Y114	Z114	X115	Y115	Z115	X116	Y116	Z116	X117	Y117	Z117	X118	Y118	Z118	X119	Y119	Z119	X120	Y120	Z120	X121	Y121	Z121	X122	Y122	Z122	X123	Y123	Z123	X124	Y124	Z124	X125	Y125	Z125	X126	Y126	Z126	X127	Y127	Z127	X128	Y128	Z128	X129	Y129	Z129	X130	Y130	Z130	X131	Y131	Z131	X132	Y132	Z132	X133	Y133	Z133	X134	Y134	Z134	X135	Y135	Z135	X136	Y136	Z136	X137	Y137	Z137	X138	Y138	Z138	X139	Y139	Z139	X140	Y140	Z140	X141	Y141	Z141	X142	Y142	Z142	X143	Y143	Z143	X144	Y144	Z144	X145	Y145	Z145	X146	Y146	Z146	X147	Y147	Z147	X148	Y148	Z148	X149	Y149	Z149	X150	Y150	Z150	X151	Y151	Z151	X152	Y152	Z152	X153	Y153	Z153	X154	Y154	Z154	X155	Y155	Z155	X156	Y156	Z156	X157	Y157	Z157	X158	Y158	Z158	X159	Y159	Z159	X160	Y160	Z160	X161	Y161	Z161	X162	Y162	Z162	X163	Y163	Z163	X164	Y164	Z164	X165	Y165	Z165	X166	Y166	Z166	X167	Y167	Z167	X168	Y168	Z168	X169	Y169	Z169	X170	Y170	Z170	X171	Y171	Z171	X172	Y172	Z172	X173	Y173	Z173	X174	Y174	Z174	X175	Y175	Z175	X176	Y176	Z176	X177	Y177	Z177	X178	Y178	Z178	X179	Y179	Z179	

275	1.826666666666667	877.822021484375	1264.408813476562	220.8801727294922	753.6460571289062	1282.329711914062	184.5201263427734	871.1517333984375	1264.42041015625	334.9194030761719	736.1751708984375	1292.947265625	351.0172119140626	671.3173828125	1138.608276367188	255.9720153808594	648.3959350585938	984.4536743164062	263.4533081054688	785.6826782226562	1097.748901367188	268.1908264160157	815.0115966796875	1046.084350585938	274.3223571777344	633.3015747070312	1063.312255859375	342.0957336425781	737.5051879882812	1102.606323242188	124.8834915161133	683.7151489257812	912.2369384765625	84.72245788574222	677.3998413085938	848.5174560546875	75.81178283691409	670.8140869140625	775.38916015625	66.01201629638676	679.2163696289062	646.2852783203125	72.93498992919926	748.2762451171875	648.4597778320312	55.53808212280278	730.0697631835938	589.6749877929688	34.20418167114263	694.5511474609375	1121.6552734375	396.0406188964844	677.1905517578125	1015.355895996094	444.757568359375	676.4746093749999	861.3728637695312	479.6397399902344	726.1519775390624	718.4928588867188	500.1781311035157	745.0732421874999	678.3460693359375	508.1030273437501	809.5823364257811	711.170166015625	509.9774169921876	826.7019042968749	653.2468872070312	541.5646362304689	666.9285888671875	789.6742553710938	276.3096313476562	811.5193481445312	757.979736328125	179.2380828857422	800.9032592773438	559.6318969726562	144.6522827148438	757.689453125	445.5542297363281	167.1629333496094	822.3504638671875	462.0643310546875	165.7122497558595	778.9765014648438	230.1158905029297	168.9709014892579	686.08642578125	150.4756317138672	184.7713470458985	830.4559936523438	149.1405181884766	189.3596496582032	722.8934936523438	50.76950454711915	252.5144195556641	875.1903076171875	48.00516510009767	229.6979980468751	817.7443237304688	550.7044067382812	433.0823974609376	812.0322265625	435.0973205566406	415.5532226562501	857.9572143554688	456.1696472167969	423.6325073242189	733.9995727539062	299.9764099121094	425.7050781250001	611.1392211914062	305.2249450683594	406.5398254394532	715.1480102539062	205.0756378173828	408.2667236328126	569.3248291015625	214.9430084228516	339.7771606445313	647.8697509765625	85.95869445800784	371.1466979980469	703.3720703125	780.433837890625	283.9316101074219	708.3058471679688	779.207763671875	284.3242797851563	703.799560546875	780.527099609375	278.8514404296876	715.5156860351562	829.9190063476562	285.8620605468751	792.5768432617188	753.8457641601562	404.3323669433594	623.3704223632812	92.23928070068362	399.8807373046876	861.7902221679688	24.951810836792	194.4598999023439	804.0264892578125	395.2945556640625	181.5355987548829	866.446044921875	399.4870300292969	413.7799682617189	761.6561279296875	52.82691574096681	210.9760894775391	599.5716552734375	189.1249389648438	386.6261291503907	802.2066040039062	393.9927368164062	233.7329101562501	868.86376953125	393.531005859375	361.4053344726564	774.4739379882812	63.90650558471681	246.5338745117188	617.9369506835938	181.6261901855469	352.4971923828126	785.15869140625	545.8568725585938	143.636459350586	807.8223876953125	549.9293212890625	445.8750915527344	758.0020141601562	213.1353149414062	152.9212188720704	703.4846801757812	308.5084533691406	438.1300354003907	256.7200012207031	0.07899999618532701	396.4200134277344	-254.2699890136719	-0.2560999989509441	231.3000030517578	-950.1600341796875	1.404999971389795	394.6300048828124	0	0	0	0	0	0	0	0	0	0	0	0	761.439697265625	695.479248046875	235.9472961425782	752.3038330078125	693.078857421875	337.4891052246094	810.435791015625	402.7017822265625	184.2933654785157	878.5672607421875	387.5862426757812	411.3892211914064	805.0625610351562	401.4038391113281	236.2453308105469	875.1673583984375	386.9429626464844	358.7359008789064	-0.1284684538841248	1.46029531955719	0.04265354573726644	256.7200012207031	0.07899999618532701	396.4200134277344	256.7200012207031	0.07899999618532701	396.4200134277344	256.7200012207031	0.07899999618532701	396.4200134277344	-254.2699890136719	-0.2560999989509441	231.3000030517578	-254.3016357421875	-0.508408188819871	231.3088226318359	-254.2699890136719	-0.2560999989509441	231.3000030517578	-950.1600341796875	1.404999971389795	394.6300048828124	-950.1600341796875	1.404999971389795	394.6300048828124	-254.2699890136719	-0.2560999989509441	231.3000030517578	-13.78766918182373	4.419967651367188	2.170024633407591	-13.78766918182373	-4.419967651367188	-2.170024633407594	-3.506562948226928	-7.681947231292725	-1.967789649963379	-64.68667602539062	-8.846357345581055	-4.541976451873786	-21.55349540710449	-2.737207651138306	-0.02028715610504398	-35.46200942993164	4.770423889160156	-3.474965810775762	-12.40147972106934	-20.24447631835938	3.088200330734253	-71.24058532714844	-23.02728271484375	2.832332134246819	-1.606519103050232	10.58034992218018	-0.2420869022607812	15.10687255859375	16.97350883483887	3.885706901550294	-8.368284476378239e-32	-1.987846699118443e-16	6.83322283796811e-16	-3.18055471858951e-15	1.192708045940846e-15	1.590277359294755e-15	-7.377560615539551	0	-9.034905993336089e-16	10.24628639221191	0	1.25480818333694e-15	-12.18380260467529	-0.7948161363601683	1.628359436988829	-12.18380260467529	0.7948161363601683	-1.628359436988832	16.06174659729004	1.27358615398407	-4.490369796752928	16.06174659729004	-1.27358615398407	4.490369796752931	23.43665504455566	-10.96747398376465	9.207413673400882	-35.05262756347656	-2.036350038245316e-12	-5.286632203995353e-15	-3.555363416671754	83.43252563476562	7.403771400451655	9.990695953369139	-2.899387836456298	10.26962566375733	-42.5303840637207	6.400866165226504e-13	-7.593885962896047e-15	-13.6674165725708	90.56151580810547	3.257001399993889	1.783130884170532	-4.838977336883545	3.782189130783081	1.783130884170533	4.838977336883545	-3.782189130783081	10.25802803039551	-4.401882648468018	1.257927298545839	10.25802803039551	4.401882648468018	-1.257927298545836	-4.519778937320291e-34	-0.06027337163686752	3.690679582445434e-18	-6.513810564592031e-36	-0.0008686471846885979	5.318929971586256e-20	5.689821163429509e-35	0.007587643340229988	-4.646091564842193e-19	3.468813027492789e-34	0.04625824838876724	-2.832500791173351e-18	-5.836536848754999e-36	-0.0007783295586705208	4.765894013538127e-20	1.066937373186289e-34	0.01422811020165682	-8.712204808187412e-19	nan	nan	nan	nan	nan	nan	nan	nan	nan	nan	nan	nan	1.878775083329111e-34	0.02505434677004814	-1.534136278833364e-18	-1.27088858772039e-34	-0.01694789528846741	1.037759285865306e-18	-3.096236268692294e-35	-0.004128976259380579	2.528268779902919e-19	-1.466232198040833e-34	-0.01955289393663406	1.19726944867833e-18	3.855093784156402e-36	0.000514094834215939	-3.147922965903695e-20	-1.185175773058765e-35	-0.001580487471073866	9.677694612715525e-20	256.7200012207031	0.07899999618532701	396.4200134277344	-254.3016204833985	-0.508408188819871	231.3088226318359	-950.1600341796875	1.404999971389795	394.6300048828124	-0.1284684538841248	1.46029531955719	0.04265354573726644	-0.09238507598638533	1.068264126777649	-0.07354870438575753	0.04296759516000748	0.5957600474357605	0.02820308320224282	0.1442572772502899	0.125371590256691	-0.04233228042721747	0.1451173722743988	-0.005609332583844662	0.005249716807156819	0.07671046257019043	0.0325147919356823	0.02627798356115819	0	0	0	0	0	0	0	0	0	0	0	0	0	0	0	0	0	0	nan	nan	nan	nan	nan	nan	nan	nan	nan	nan	nan	nan	-0.09171847999095917	0.4302614331245422	-0.04528170824050907	-0.08567743748426439	0.4071857631206512	0.1501604318618774	0.1016491651535034	0.1806202381849289	-0.01765882782638073	0.08530174195766448	0.1788291186094284	0.06767911463975906	-0.004613281693309541	0.05004962161183357	-0.03316294401884079	-0.01840009912848473	0.0469239130616188	0.03381471335887909	256.7200012207031	0.07899999618532701	396.4200134277344	0	0	0	-254.3016204833985	-0.508408188819871	231.3088226318359	-0.03163701295852661	-0.252308189868927	0.008816275745630276	-950.1600341796875	1.404999971389795	394.6300048828124	-0.03163701295852661	-0.252308189868927	0.008816275745630276	31.94376754760742	-0.8456959724426258	18.59040451049805	19.31570243835449	1.699908018112184	14.52519989013672	-0.01392890512943309	0.1792781054973604	3.361010789871216	-13.20538425445556	4.949111938476562	-8.023945808410646	7.09992504119873	0.2900778055191041	0.5881886482238778	4.841939449310303	-2.049529552459717	-0.5594910383224481	nan	nan	nan	nan	nan	nan	nan	nan	nan	nan	nan	nan	nan	nan	nan	nan	nan	nan	8.989293098449705	-0.981509923934936	8.613267898559572	-7.336465835571293	-5.446324825286863	31.40230560302734	15.43573188781738	0.18731227517128	1.975956559181215	11.59699821472168	-0.1045890226960177	7.942902088165285	-0.007271121721714926	9.272283521998284e-16	1.5567866563797	-0.8840656876564028	-2.98465064389179e-15	1.804876327514648	0	0	0	-8.811169624328615	-13.5677375793457	14.46193504333496	-8.811169624328615	-13.5677375793457	14.46193504333496	
276	1.833333333333333	885.1959228515625	1265.163818359375	221.0670623779297	761.0193481445312	1283.123901367188	184.7225799560547	878.5379028320312	1265.14501953125	335.1085205078126	743.5741577148438	1293.69677734375	351.2275695800782	678.6593627929688	1139.441528320312	255.8235778808594	655.5962524414062	985.29248046875	263.1306762695312	792.8629760742188	1098.58154296875	268.5427551269532	822.1474609375	1046.883544921875	274.7294921875001	640.2520751953125	1064.036987304688	341.5679931640625	745.3988647460938	1103.553955078125	125.060302734375	693.9204711914062	912.895751953125	83.21411895751956	688.4017944335938	849.1800537109375	73.83258819580081	682.5614624023438	776.077880859375	63.497917175293	691.8175659179688	647.009033203125	69.65195465087895	761.3572998046875	649.7699584960938	54.14880371093755	744.0838623046875	591.0833740234375	31.78722953796392	701.1966552734375	1122.168579101562	396.0291442871094	683.4024047851562	1015.701538085938	444.3799438476562	682.1362304687499	861.5651245117188	478.2351684570312	729.0897216796874	717.677490234375	497.7008666992188	747.1876220703124	677.1192626953125	505.4165344238282	812.3126831054686	708.6829223632812	508.1093139648438	828.0578613281249	649.9757690429688	539.1245727539064	673.9440307617188	790.439208984375	276.6250305175781	818.1686401367188	758.4517822265625	179.155746459961	805.2700805664062	559.5521850585938	144.7414245605469	760.7699584960938	446.1101989746094	167.3433380126954	825.631591796875	461.7360229492188	165.6555938720704	780.3424072265625	230.1503601074219	168.9170379638673	687.0360717773438	151.232177734375	184.3523864746095	831.2369995117188	148.8059539794922	189.4082794189454	722.9398193359375	51.07937622070314	252.4909820556641	875.319091796875	47.93005371093751	229.6248016357423	828.9750366210938	553.3643188476562	433.0358581542969	825.2798461914062	437.6357116699219	415.6885986328126	870.8419189453125	459.6194763183594	422.970916748047	749.3013916015625	300.8247985839844	426.0058593750001	626.1749267578125	303.5465087890625	407.7066345214844	732.2685546875	205.5799713134766	408.8023681640626	585.4419555664062	211.5576782226563	341.5332336425782	669.1760864257812	85.54096221923831	372.1526184082032	710.4112548828125	781.2460327148438	284.1409912109376	715.3471069335938	780.023681640625	284.5195007324219	710.8194580078125	781.3206176757812	279.0588989257813	722.538818359375	830.7435913085938	285.8416137695313	800.0870361328125	755.1464233398438	404.2667541503907	644.5401000976562	90.71941375732425	401.0261840820313	861.892578125	24.87482833862306	194.3941650390626	806.5505981445312	395.1669006347656	181.520980834961	880.3092041015625	403.1134338378906	413.020721435547	761.87109375	52.93621063232423	210.747283935547	616.845947265625	187.2594451904297	387.9986572265626	804.9303588867188	393.8558959960938	233.7246398925782	881.9598388671875	397.1516723632812	360.6169433593751	774.6506958007812	63.91663742065431	246.349594116211	635.1123657226562	180.0937652587891	353.7453002929688	789.6080322265625	546.12158203125	143.6934509277344	819.4324951171875	552.470703125	445.5732116699219	759.6258544921875	213.318603515625	152.6992492675782	718.77099609375	308.8551025390625	438.6827087402345	256.7200012207031	0.07899999618532701	396.4200134277344	-254.2699890136719	-0.2560999989509441	231.3000030517578	-950.1600341796875	1.404999971389795	394.6300048828124	0	0	0	0	0	0	0	0	0	0	0	0	768.3363037109375	696.1401977539062	236.2525482177735	759.586669921875	694.1128540039062	337.8364868164063	812.7598266601562	402.5398864746094	184.4515380859376	891.9769287109375	391.2992553710938	410.5681762695314	807.2294921875	401.2374572753906	236.3869323730469	888.2125854492188	390.5315551757812	357.9413146972657	-0.1370290964841843	1.458719849586487	0.02831333130598057	256.7200012207031	0.07899999618532701	396.4200134277344	256.7200012207031	0.07899999618532701	396.4200134277344	256.7200012207031	0.07899999618532701	396.4200134277344	-254.2699890136719	-0.2560999989509441	231.3000030517578	-254.3016357421875	-0.508408188819871	231.3088226318359	-254.2699890136719	-0.2560999989509441	231.3000030517578	-950.1600341796875	1.404999971389795	394.6300048828124	-950.1600341796875	1.404999971389795	394.6300048828124	-254.2699890136719	-0.2560999989509441	231.3000030517578	-13.76696395874023	4.259514331817627	1.911604046821592	-13.76696395874023	-4.259514331817627	-1.911604046821596	-3.561836242675781	-7.615221977233887	-1.875648021697998	-62.27520751953125	-8.589747428894043	-3.85316467285157	-20.71340942382812	-2.722305059432983	-0.1929273754358315	-36.51826477050781	5.381932735443115	-3.071659803390508	-12.05600166320801	-19.81559181213379	3.053403615951538	-71.18111419677734	-23.28630256652832	3.276897192001335	-1.987990856170654	10.46298217773438	-0.2955812215805063	13.89644527435303	17.26286506652832	3.631331205368043	1.192708045940846e-15	-5.963540229704228e-16	3.168130651077421e-15	3.180554718589511e-15	-3.895056155633654e-31	-6.361109437179021e-15	-7.757980823516846	0	-9.500786383366453e-16	9.050318717956543	0	1.108344384920886e-15	-12.14350986480713	-1.05204975605011	1.614049077033995	-12.14350986480713	1.05204975605011	-1.614049077033998	15.97786998748779	1.664802193641662	-4.138589859008787	15.97786998748779	-1.664802193641662	4.138589859008791	22.79372596740723	-10.19123363494873	9.778777122497562	-34.95758438110352	-2.421992294221464e-12	-5.274992771087936e-15	-3.654619455337525	84.05509948730469	7.478216171264642	10.25317478179931	-2.560093879699707	10.05992317199707	-41.87453460693359	1.326291290335013e-12	-3.537874117921956e-15	-13.35575866699219	90.24188232421875	3.238717555999749	1.731139779090881	-5.092945575714111	3.74882197380066	1.731139779090882	5.092945575714111	-3.74882197380066	10.27090167999268	-4.393905162811279	1.24300789833069	10.27090167999268	4.393905162811279	-1.243007898330687	-5.014806934095837e-34	-0.06687480211257935	4.094900617539147e-18	-9.217531829780997e-36	-0.001229201094247401	7.526685927892517e-20	5.492754370121767e-35	0.007324845530092716	-4.485174316338422e-19	2.625929459833651e-34	0.03501800075173378	-2.144234126657519e-18	4.685268126525622e-35	0.006248024757951498	-3.825811760409359e-19	9.452200628279019e-35	0.01260495278984308	-7.718307543742415e-19	nan	nan	nan	nan	nan	nan	nan	nan	nan	nan	nan	nan	1.753732925128484e-34	0.02338685095310211	-1.432031608092636e-18	-1.212969553936246e-34	-0.01617551781237125	9.904648056735727e-19	-3.375860316148644e-35	-0.004501868039369583	2.756599142298865e-19	-1.48862757080713e-34	-0.01985154673457146	1.215556658330851e-18	3.181560111843598e-36	0.000424275960540399	-2.597940985154842e-20	-1.242788287829727e-35	-0.001657316461205482	1.014813649694756e-19	256.7200012207031	0.07899999618532701	396.4200134277344	-254.3016204833985	-0.508408188819871	231.3088226318359	-950.1600341796875	1.404999971389795	394.6300048828124	-0.1370290964841843	1.458719849586487	0.02831332944333543	-0.08010324835777281	1.005514860153198	-0.08721863478422172	0.04470416903495789	0.5992722511291504	0.01203089393675324	0.1320992410182953	0.1158583983778954	-0.04579554125666618	0.145701140165329	-0.00689231138676405	0.001052199047990162	0.07489990442991257	0.02803629264235497	0.0230606459081173	0	0	0	0	0	0	0	0	0	0	0	0	0	0	0	0	0	0	nan	nan	nan	nan	nan	nan	nan	nan	nan	nan	nan	nan	-0.09137565642595291	0.4270499348640442	-0.04157965257763867	-0.0816507712006569	0.4067358374595642	0.1459524482488632	0.09996595233678818	0.1809303313493729	-0.01522513106465339	0.08562213182449339	0.1797286421060562	0.06669103354215622	-0.00481591839343309	0.05007485672831535	-0.03336521610617638	-0.0185067281126976	0.04730537533760071	0.03480711206793785	256.7200012207031	0.07899999618532701	396.4200134277344	0	0	0	-254.3016204833985	-0.508408188819871	231.3088226318359	-0.03163701295852661	-0.252308189868927	0.008816275745630276	-950.1600341796875	1.404999971389795	394.6300048828124	-0.03163701295852661	-0.252308189868927	0.008816275745630276	33.77596282958984	-0.2665238976478571	10.3977918624878	15.75235462188721	1.017817020416261	15.76930618286133	1.528193950653076	-0.02208318747580049	0.3725307285785677	-12.99431896209717	4.391562938690186	-6.538651943206789	7.098046779632568	0.08008939772844317	0.4987190961837777	4.512866973876953	-1.674248337745667	-0.405403554439544	nan	nan	nan	nan	nan	nan	nan	nan	nan	nan	nan	nan	nan	nan	nan	nan	nan	nan	8.296216964721678	-0.8849412202835079	7.300544261932374	-6.570880889892582	-5.450197219848631	30.94261741638184	15.44282531738281	0.1944421082735063	1.822611451148989	12.03979110717773	-0.105077594518661	8.047852516174318	-0.02957439050078412	6.365515671731855e-16	1.60473370552063	-0.9174656271934511	1.376809766434713e-15	1.906213998794555	0	0	0	-8.811169624328615	-13.5677375793457	14.46193504333496	-8.811169624328615	-13.5677375793457	14.46193504333496	
